<?xml version="1.0" standalone="no"?>
<!DOCTYPE svg PUBLIC "-//W3C//DTD SVG 20010904//EN"
 "http://www.w3.org/TR/2001/REC-SVG-20010904/DTD/svg10.dtd">
<svg version="1.0" xmlns="http://www.w3.org/2000/svg"
 width="512.000000pt" height="512.000000pt" viewBox="0 0 512.000000 512.000000"
 preserveAspectRatio="xMidYMid meet">
<metadata>
Created by potrace 1.14, written by Peter Selinger 2001-2017
</metadata>
<g transform="translate(0.000000,512.000000) scale(0.100000,-0.100000)"
fill="#000000" stroke="none">
<path d="M1586 3192 l-837 -1767 128 -255 128 -255 260 -190 c194 -141 326
-228 515 -339 l255 -148 413 -39 412 -39 241 105 c132 58 257 114 277 124 53
27 574 360 594 380 23 22 401 633 401 648 0 6 -318 690 -707 1520 l-707 1508
-78 75 c-43 41 -164 157 -268 257 l-190 182 -837 -1767z m1036 1195 l107 -102
666 -1418 c366 -780 665 -1424 665 -1431 0 -7 -64 -115 -142 -241 l-143 -229
-260 -166 c-235 -151 -281 -176 -480 -263 l-220 -96 -347 33 -346 32 -234 137
c-152 90 -307 192 -448 295 l-215 157 -84 166 -84 166 724 1531 c398 842 726
1531 729 1531 3 0 53 -46 112 -102z"/>
</g>
</svg>
