<?xml version="1.0" standalone="no"?>
<!DOCTYPE svg PUBLIC "-//W3C//DTD SVG 20010904//EN"
 "http://www.w3.org/TR/2001/REC-SVG-20010904/DTD/svg10.dtd">
<svg version="1.0" xmlns="http://www.w3.org/2000/svg"
 width="512.000000pt" height="512.000000pt" viewBox="0 0 512.000000 512.000000"
 preserveAspectRatio="xMidYMid meet">
<metadata>
Created by potrace 1.14, written by Peter Selinger 2001-2017
</metadata>
<g transform="translate(0.000000,512.000000) scale(0.100000,-0.100000)"
fill="#000000" stroke="none">
<path d="M1227 5104 c-312 -49 -578 -184 -802 -409 -211 -210 -342 -455 -402
-751 -17 -83 -18 -175 -18 -1389 l0 -1300 23 -102 c64 -292 188 -520 397 -729
209 -209 454 -341 751 -401 83 -17 175 -18 1389 -18 l1300 0 102 23 c292 64
520 188 729 397 209 209 341 454 401 751 17 83 18 175 18 1389 l0 1300 -23
102 c-64 292 -188 519 -397 728 -204 205 -432 330 -727 398 -92 21 -105 21
-1373 23 -1051 2 -1296 0 -1368 -12z m2153 -2029 l692 -1460 -106 -211 -105
-212 -208 -153 c-132 -97 -289 -200 -428 -282 l-220 -129 -345 -33 -345 -32
-230 102 c-205 91 -255 118 -463 252 l-234 150 -167 375 -168 375 596 1162
596 1162 215 204 c118 113 218 201 222 197 4 -4 318 -664 698 -1467z"/>
<path d="M2513 4083 l-92 -88 -556 -1081 -556 -1082 119 -298 119 -299 219
-141 c183 -117 250 -154 404 -222 l185 -81 290 28 290 28 185 108 c102 60 271
171 376 248 l191 139 68 137 67 137 -603 1277 c-332 702 -606 1277 -609 1277
-3 0 -47 -39 -97 -87z"/>
</g>
</svg>
