<?xml version="1.0" standalone="no"?>
<!DOCTYPE svg PUBLIC "-//W3C//DTD SVG 20010904//EN"
 "http://www.w3.org/TR/2001/REC-SVG-20010904/DTD/svg10.dtd">
<svg version="1.0" xmlns="http://www.w3.org/2000/svg"
 width="364.000000pt" height="364.000000pt" viewBox="0 0 364.000000 364.000000"
 preserveAspectRatio="xMidYMid meet">
<metadata>
Created by potrace 1.11, written by Peter Selinger 2001-2013
</metadata>
<g transform="translate(0.000000,364.000000) scale(0.100000,-0.100000)"
fill="#000000" stroke="none">
<path d="M1734 3045 c-66 -14 -123 -40 -194 -88 -51 -34 -218 -199 -271 -266
-19 -24 -44 -55 -56 -70 -12 -14 -38 -48 -56 -74 l-34 -48 -1 74 c-2 189 -98
374 -227 437 -166 81 -388 -8 -641 -257 -152 -150 -239 -257 -248 -304 -14
-81 98 -158 233 -159 85 0 130 25 167 94 48 89 145 225 195 273 93 89 146 108
184 67 43 -47 46 -144 10 -319 -14 -66 -28 -136 -31 -155 -3 -19 -7 -37 -9
-40 -2 -3 -15 -69 -30 -147 -14 -79 -28 -153 -31 -165 -5 -28 -22 -121 -30
-163 -2 -16 -19 -102 -36 -190 -16 -88 -32 -171 -34 -185 -3 -14 -9 -48 -15
-76 -5 -28 -12 -64 -15 -80 -5 -27 -66 -332 -85 -419 -4 -22 -13 -56 -19 -75
-5 -19 -8 -42 -5 -51 11 -34 114 -69 216 -73 153 -6 236 35 255 127 15 70 35
177 40 207 3 19 7 42 9 50 2 8 7 29 9 45 5 27 85 477 101 565 15 84 26 147 31
175 3 17 20 109 39 205 19 96 36 186 38 200 38 205 130 349 270 422 38 20 67
27 109 28 54 0 60 -2 102 -42 68 -66 80 -119 80 -353 1 -163 -9 -381 -19 -434
-1 -9 -6 -48 -9 -86 -4 -39 -8 -80 -10 -92 -3 -12 -7 -50 -11 -84 -4 -35 -8
-66 -10 -69 -1 -3 -6 -30 -9 -60 -4 -30 -8 -66 -11 -80 -2 -14 -16 -97 -30
-185 -14 -88 -28 -169 -29 -180 -35 -198 -39 -244 -23 -268 56 -86 282 -106
371 -34 29 23 30 28 47 181 31 277 35 312 44 366 2 14 7 43 10 66 7 49 62 391
68 419 3 11 8 40 12 65 26 161 93 445 130 556 46 137 132 241 242 291 79 36
148 39 210 7 58 -30 83 -62 98 -128 15 -66 7 -126 -51 -391 -92 -418 -88 -403
-109 -482 -9 -35 -18 -71 -20 -80 -2 -10 -10 -47 -18 -83 -9 -36 -18 -85 -21
-110 -3 -25 -8 -62 -11 -83 -10 -62 -12 -191 -4 -260 28 -230 166 -360 379
-358 239 2 534 250 637 535 55 153 27 288 -55 262 -9 -3 -28 -29 -42 -58 -37
-78 -168 -206 -253 -248 -37 -18 -82 -33 -99 -32 -42 1 -79 30 -94 74 -14 42
-16 217 -3 298 5 30 11 72 14 92 5 29 64 268 89 358 7 23 107 412 112 435 39
166 47 335 21 422 -33 111 -149 242 -243 276 -133 47 -299 5 -490 -124 -104
-70 -189 -140 -281 -230 l-81 -80 -7 30 c-3 17 -7 34 -7 38 -2 21 -48 144 -71
188 -79 155 -219 224 -383 190z"/>
</g>
</svg>
