<?xml version="1.0" standalone="no"?>
<!DOCTYPE svg PUBLIC "-//W3C//DTD SVG 20010904//EN"
 "http://www.w3.org/TR/2001/REC-SVG-20010904/DTD/svg10.dtd">
<svg version="1.0" xmlns="http://www.w3.org/2000/svg"
 width="512.000000pt" height="512.000000pt" viewBox="0 0 512.000000 512.000000"
 preserveAspectRatio="xMidYMid meet">
<metadata>
Created by potrace 1.14, written by Peter Selinger 2001-2017
</metadata>
<g transform="translate(0.000000,512.000000) scale(0.100000,-0.100000)"
fill="#000000" stroke="none">
<path d="M1255 5109 c-312 -40 -601 -184 -830 -414 -211 -210 -342 -455 -402
-751 -17 -83 -18 -175 -18 -1384 0 -1434 -4 -1350 65 -1562 144 -440 500 -794
936 -931 206 -65 128 -62 1554 -62 1434 0 1350 -4 1562 65 440 144 794 500
931 936 65 206 62 128 62 1554 0 1204 -1 1301 -18 1383 -60 296 -192 543 -402
752 -204 205 -433 330 -727 398 -92 21 -106 21 -1368 23 -712 1 -1306 -2
-1345 -7z m1956 -2131 l556 -1173 -85 -170 -84 -170 -171 -125 c-94 -69 -248
-170 -342 -225 l-170 -99 -275 -27 -275 -27 -178 78 c-137 60 -221 106 -371
201 l-195 124 -130 293 c-72 161 -131 300 -131 307 0 8 211 427 470 932 l469
918 173 167 c95 92 175 167 178 168 3 0 256 -528 561 -1172z"/>
<path d="M2523 3782 l-72 -67 -411 -799 c-226 -439 -427 -830 -447 -870 l-35
-72 96 -239 97 -240 172 -109 c191 -122 430 -236 495 -236 20 0 128 9 238 19
l201 20 159 93 c88 52 222 140 299 197 l140 103 57 112 56 112 -480 1015
c-264 558 -483 1017 -486 1021 -4 3 -39 -24 -79 -60z"/>
</g>
</svg>
