<?xml version="1.0" standalone="no"?>
<!DOCTYPE svg PUBLIC "-//W3C//DTD SVG 20010904//EN"
 "http://www.w3.org/TR/2001/REC-SVG-20010904/DTD/svg10.dtd">
<svg version="1.0" xmlns="http://www.w3.org/2000/svg"
 width="512.000000pt" height="512.000000pt" viewBox="0 0 512.000000 512.000000"
 preserveAspectRatio="xMidYMid meet">
<metadata>
Created by potrace 1.14, written by Peter Selinger 2001-2017
</metadata>
<g transform="translate(0.000000,512.000000) scale(0.100000,-0.100000)"
fill="#000000" stroke="none">
<path d="M2330 4763 c-87 -185 -136 -288 -262 -553 -28 -58 -65 -136 -83 -175
-18 -38 -57 -122 -87 -185 -30 -63 -92 -194 -138 -290 -45 -96 -105 -222 -132
-280 -28 -58 -67 -141 -88 -185 -51 -110 -107 -227 -180 -380 -34 -71 -75
-157 -90 -190 -15 -33 -54 -114 -85 -180 -32 -66 -72 -151 -90 -190 -18 -38
-65 -137 -104 -219 -39 -82 -71 -150 -71 -151 0 -6 -131 -281 -152 -319 l-21
-39 128 -256 127 -256 87 -62 c47 -34 151 -110 231 -169 150 -110 242 -173
320 -216 25 -14 124 -72 220 -128 l175 -103 140 -13 c77 -7 169 -16 205 -19
36 -3 83 -8 105 -10 22 -2 74 -7 115 -10 41 -3 89 -8 105 -11 130 -19 155 -15
270 35 60 27 144 63 185 81 41 18 103 46 138 61 34 16 65 29 68 29 12 0 602
381 616 398 8 9 59 89 113 177 54 88 128 207 163 265 36 58 77 125 93 148 32
50 34 38 -36 187 -26 55 -60 127 -75 160 -15 33 -49 105 -75 160 -75 158 -125
264 -160 340 -42 90 -107 228 -155 330 -21 44 -52 109 -68 145 -17 36 -53 115
-82 175 -29 61 -63 135 -77 165 -14 30 -57 120 -94 199 -38 79 -69 144 -69
146 0 1 -31 67 -69 147 -38 79 -80 168 -94 198 -13 30 -79 170 -145 310 -66
140 -138 293 -160 340 -37 81 -47 92 -208 245 -93 88 -182 174 -199 190 -17
17 -60 58 -96 93 l-66 62 -93 -197z m291 -376 c101 -97 108 -107 158 -215 l53
-113 -104 -102 c-236 -232 -500 -448 -633 -518 -16 -9 -47 -25 -68 -37 -21
-12 -39 -22 -42 -22 -2 0 23 57 57 128 33 70 77 163 98 207 20 44 59 125 85
180 74 156 180 380 233 492 26 56 49 102 52 102 3 0 53 -46 111 -102z m299
-508 c0 -4 25 -60 56 -125 31 -66 69 -146 84 -179 15 -33 51 -109 79 -169 28
-60 49 -111 46 -114 -3 -3 -101 13 -218 36 -213 42 -334 55 -394 41 -36 -8
-40 -1 -20 33 39 69 200 318 264 411 68 96 77 105 89 90 7 -10 14 -21 14 -24z
m-390 -299 c-28 -44 -50 -84 -50 -89 0 -5 -3 -11 -7 -13 -15 -6 -72 -124 -96
-198 -29 -88 -30 -215 -3 -290 50 -136 202 -275 407 -373 37 -17 68 -35 68
-39 1 -3 -18 -13 -41 -21 -24 -9 -95 -35 -158 -60 -342 -133 -539 -207 -549
-207 -6 0 -11 4 -11 9 0 6 -33 26 -72 45 -107 52 -223 66 -425 51 l-83 -6 34
68 c19 37 48 97 64 133 17 36 58 124 92 195 33 72 84 180 113 240 101 214 95
205 162 232 33 13 76 31 95 41 120 59 344 219 484 345 11 9 21 17 22 17 2 0
-19 -36 -46 -80z m225 -326 c86 -12 103 -16 200 -36 55 -11 105 -21 110 -22 6
-1 50 -8 98 -16 l89 -13 64 -135 c35 -74 64 -136 64 -137 0 -2 34 -73 75 -160
41 -86 75 -158 75 -160 0 -1 25 -55 55 -119 30 -64 55 -118 55 -120 0 -5 -96
-34 -135 -42 -48 -10 -183 -34 -212 -38 -17 -2 -36 -7 -41 -10 -9 -5 -29 -121
-37 -211 -7 -75 -7 -300 0 -414 4 -62 3 -112 -1 -110 -5 2 -53 31 -107 64 -54
33 -151 92 -215 130 l-117 71 -3 42 c-7 90 70 305 215 600 52 107 93 195 91
196 -2 1 -39 15 -82 31 -235 84 -432 221 -501 347 -21 37 -27 63 -27 107 0
142 81 186 287 155z m99 -851 c-75 -166 -109 -247 -144 -350 -22 -62 -37 -113
-35 -113 2 0 -1 -15 -6 -32 -5 -18 -10 -59 -10 -91 l-2 -58 -79 -46 c-103 -59
-221 -175 -278 -271 -24 -40 -57 -115 -75 -166 l-32 -92 -99 59 c-54 33 -101
61 -103 63 -3 3 7 17 21 32 56 60 118 213 134 329 3 26 8 51 10 54 14 23 23
339 12 421 l-7 47 142 55 c78 30 234 91 347 135 113 44 211 80 217 80 8 1 4
-19 -13 -56z m-926 -137 c72 -23 118 -71 128 -133 28 -173 -13 -503 -80 -648
-25 -55 -71 -109 -85 -101 -5 3 -14 27 -21 53 -26 107 -111 223 -194 265 -65
33 -106 22 -232 -62 -60 -40 -120 -80 -134 -89 -61 -41 -240 -118 -240 -104 0
10 372 796 381 807 5 6 14 11 21 12 7 1 33 5 58 9 25 4 46 8 48 10 2 2 70 2
150 1 105 -2 162 -8 200 -20z m1772 -45 c0 -5 25 -63 56 -128 31 -65 69 -145
84 -178 41 -90 96 -206 161 -344 33 -67 59 -128 59 -135 0 -7 -47 -88 -105
-180 -58 -92 -105 -169 -105 -171 0 -13 -82 -124 -101 -136 -21 -14 -29 -11
-131 40 -60 31 -123 68 -141 82 -100 81 -152 337 -152 754 0 226 7 314 27 326
7 5 23 9 36 9 27 0 180 34 242 54 55 17 70 19 70 7z m-879 -602 c440 -267 424
-257 427 -286 4 -47 41 -173 68 -227 28 -58 73 -110 124 -147 40 -28 143 -79
160 -79 24 0 1 -26 -53 -60 -31 -19 -109 -69 -174 -110 -153 -98 -543 -271
-594 -265 -54 7 -141 14 -171 15 -19 0 -39 13 -65 42 -21 23 -63 68 -93 101
-126 136 -173 236 -173 367 1 223 112 465 270 588 41 32 172 112 184 112 3 0
44 -23 90 -51z m-1148 -53 c24 -24 54 -66 66 -92 27 -57 38 -114 23 -114 -18
0 -87 -73 -116 -123 -38 -65 -89 -189 -111 -270 -10 -37 -21 -69 -24 -72 -4
-2 -49 28 -101 66 -201 148 -186 132 -250 259 l-59 117 42 12 c74 22 199 89
327 176 69 46 133 84 143 84 9 1 37 -19 60 -43z m279 -368 c43 -26 82 -48 88
-48 5 0 10 -4 10 -10 0 -5 4 -10 10 -10 5 0 32 -14 59 -30 l49 -30 0 -88 c1
-48 3 -98 6 -112 3 -14 8 -37 12 -52 11 -53 92 -197 134 -238 3 -3 25 -27 50
-53 l45 -48 -55 5 c-84 8 -182 18 -212 21 -15 1 -97 43 -182 93 -85 51 -170
100 -188 111 -88 50 -116 68 -143 89 l-29 23 33 107 c41 135 111 282 151 315
36 31 42 29 162 -45z"/>
</g>
</svg>
